# xmcd
#
# Track frame offsets:
#	150
#	13079
#	22268
#	36263
#	48336
#	61775
#	74843
#	87649
#	100864
#	115474
#	128762
#	140259
#	151764
#	162746
#	175089
#	190105
#	202762
#	215772
#	229060
#	240367
#	253206
#	266539
#	275622
#
# Disc length: 3847 seconds
#
# Revision: 1
# Processed by: cddbd v1.5.2PL0 Copyright (c) Steve Scherf et al.
# Submitted via: audiograbber 1.83.01
#
DISCID=520f0517
DTITLE=Various Artist - Amazing Grace - The Uplifting Sound Of Gospel CD3
DYEAR=2013
DGENRE=Gospel
TTITLE0=Patsy Cline - Just A Closer Walk With Thee
TTITLE1=Bill Monroe and His Bluegrass Boys - Walking In Jerusalem
TTITLE2=Merle Travis - God Put A Rainbow In The Sky
TTITLE3=Ernest Tubb - What A Friend We Have In Jesus
TTITLE4=Stuart Hamblen - This Ole House
TTITLE5=Ernest Tubb - Farther Along
TTITLE6=Kitty Wells - Gathering Flowers For The Master's Bouquet
TTITLE7=Merle Travis - I Am A Pilgrim
TTITLE8=Red Foley - Peace In The Valley
TTITLE9=Marty Robbins - Kneel And Let The Lord Take Your Load
TTITLE10=Hank Snow And The Jordanaires - The Gloryland March
TTITLE11=Patsy Cline - Dear God
TTITLE12=Hank Thompson - When God Calls His Children Home
TTITLE13=Kitty Wells - Don't Wait For The Last Minute To Pray
TTITLE14=Tex Ritter - Rounded Up In Glory
TTITLE15=Slim Whitman - Lord, Help Me As Thou
TTITLE16=The Sons Of The Pioneers - One More River
TTITLE17=Hank Williams - Calling You
TTITLE18=Hank Williams - A House Of Gold
TTITLE19=Carl Story - The Lord Keeps A Record
TTITLE20=Bob Wills and His Texas Playboys - No Disappointment In Heaven
TTITLE21=The Jordanaires - I'm Working On A Building Of Love
TTITLE22=The Sons Of The Pioneers - The Old Rugged Cross
EXTD=
EXTT0=
EXTT1=
EXTT2=
EXTT3=
EXTT4=
EXTT5=
EXTT6=
EXTT7=
EXTT8=
EXTT9=
EXTT10=
EXTT11=
EXTT12=
EXTT13=
EXTT14=
EXTT15=
EXTT16=
EXTT17=
EXTT18=
EXTT19=
EXTT20=
EXTT21=
EXTT22=
PLAYORDER=
